<?xml version="1.0" standalone="no"?>
<!DOCTYPE svg PUBLIC "-//W3C//DTD SVG 20010904//EN"
 "http://www.w3.org/TR/2001/REC-SVG-20010904/DTD/svg10.dtd">
<svg version="1.0" xmlns="http://www.w3.org/2000/svg"
 width="250.000000pt" height="177.000000pt" viewBox="0 0 250.000000 177.000000"
 preserveAspectRatio="xMidYMid meet">

<g transform="translate(0.000000,177.000000) scale(0.100000,-0.100000)"
fill="#000000" stroke="none">
<path d="M1 1173 c1 -495 3 -589 13 -548 13 53 20 68 71 155 46 78 85 147 335
580 122 212 225 388 229 393 4 4 18 -12 31 -35 13 -24 94 -164 179 -313 86
-148 167 -291 181 -317 l25 -47 -30 -31 -29 -30 -16 27 c-17 28 -55 94 -238
411 l-99 172 -17 -24 c-9 -14 -16 -27 -16 -30 0 -2 -63 -113 -141 -247 -400
-691 -398 -685 -384 -777 14 -97 65 -172 147 -218 47 -26 62 -29 138 -29 96 0
143 18 205 80 69 70 79 102 83 273 l4 152 40 0 39 0 -3 -163 c-3 -151 -5 -166
-30 -219 -33 -72 -109 -147 -185 -184 -51 -26 -69 -29 -153 -29 -83 0 -103 4
-155 28 -68 32 -147 103 -178 162 -11 22 -26 65 -33 95 -11 49 -12 25 -13
-202 l-1 -258 1250 0 1250 0 0 885 0 885 -1250 0 -1250 0 1 -597z m884 -129
l67 -117 -35 -34 -35 -35 -38 71 c-22 39 -42 71 -45 71 -4 0 -82 -75 -173
-166 l-166 -167 0 -148 0 -148 -45 2 -45 2 0 170 0 170 222 222 c123 123 223
223 224 223 1 0 32 -52 69 -116z m416 -113 c8 -1 29 -49 29 -67 0 -24 -47 -64
-75 -64 -57 0 -86 79 -45 120 18 18 41 21 91 11z m1159 -61 c0 -7 -165 -10
-475 -10 -310 0 -475 3 -475 10 0 7 165 10 475 10 310 0 475 -3 475 -10z
m-1340 -236 c0 -50 -2 -55 -19 -49 -30 9 -88 -20 -105 -54 -12 -23 -16 -62
-16 -166 l0 -135 -55 0 -55 0 0 173 c0 94 -3 196 -6 225 l-7 52 51 0 51 0 3
-42 3 -43 19 31 c24 40 62 63 104 64 l32 0 0 -56z m330 34 c73 -38 84 -72 88
-270 l4 -168 -50 0 c-45 0 -50 2 -56 26 l-7 25 -29 -24 c-80 -68 -214 -33
-240 62 -25 93 42 178 155 196 22 3 55 8 73 11 40 6 43 34 6 63 -32 25 -98 28
-150 6 -34 -14 -35 -14 -44 11 -17 44 -12 53 38 68 73 23 160 20 212 -6z m443
11 c28 -8 37 -14 33 -26 -3 -8 -9 -26 -12 -40 -5 -17 -11 -22 -23 -17 -33 13
-99 16 -120 4 -16 -8 -21 -19 -19 -38 3 -23 15 -33 80 -64 87 -42 111 -70 112
-133 1 -51 -23 -89 -75 -120 -41 -24 -156 -28 -207 -6 -30 13 -32 17 -26 45 3
17 9 34 13 38 3 4 31 0 61 -8 41 -10 63 -11 86 -4 66 22 51 78 -26 106 -79 28
-121 69 -127 124 -12 111 109 178 250 139z m479 -24 c63 -44 93 -110 92 -200
-1 -101 -38 -166 -116 -206 -57 -29 -116 -34 -181 -15 -123 36 -184 163 -143
299 20 67 52 106 110 134 42 20 63 23 123 21 61 -3 78 -8 115 -33z"/>
<path d="M1225 900 c-36 -40 9 -95 57 -69 25 13 24 65 -1 79 -27 14 -35 13
-56 -10z"/>
<path d="M1309 427 c-26 -18 -35 -31 -37 -58 -4 -43 16 -63 64 -63 52 0 84 36
84 96 l0 48 -39 0 c-23 0 -51 -9 -72 -23z"/>
<path d="M2193 598 c-33 -16 -63 -85 -63 -144 0 -65 26 -115 72 -137 33 -16
40 -17 73 -3 26 11 41 27 55 58 60 132 -29 278 -137 226z"/>
</g>
</svg>
