<?xml version="1.0" standalone="no"?>
<!DOCTYPE svg PUBLIC "-//W3C//DTD SVG 20010904//EN"
 "http://www.w3.org/TR/2001/REC-SVG-20010904/DTD/svg10.dtd">
<svg version="1.0" xmlns="http://www.w3.org/2000/svg"
 width="1280.000000pt" height="906.000000pt" viewBox="0 0 1280.000000 906.000000"
 preserveAspectRatio="xMidYMid meet">

<g transform="translate(0.000000,906.000000) scale(0.100000,-0.100000)"
fill="#000000" stroke="none">
<path d="M1 5973 c1 -1699 5 -3050 10 -3003 11 118 44 275 86 405 41 131 151
359 227 470 66 98 260 426 446 755 45 80 68 119 110 190 18 30 41 69 50 85
133 230 217 378 238 415 13 25 31 52 38 61 8 8 14 19 14 22 0 4 37 71 83 149
46 79 95 163 109 188 13 25 47 84 75 131 27 48 53 93 57 100 4 8 12 23 19 34
7 11 33 56 58 100 25 44 62 107 81 140 19 33 44 76 54 95 10 19 22 37 25 40 3
3 19 30 35 60 17 30 73 127 124 215 51 88 101 174 110 190 10 17 43 75 75 130
102 177 177 309 208 365 17 30 33 57 36 60 3 3 15 21 25 40 10 19 42 76 71
125 29 50 89 153 133 230 44 77 90 156 101 175 26 43 104 179 138 240 14 25
38 65 53 90 15 25 56 95 90 155 35 61 69 118 78 128 8 9 12 17 9 17 -4 0 10
28 31 63 21 34 71 121 112 192 41 72 78 133 84 137 6 4 7 8 2 8 -5 0 -3 8 5
18 16 19 39 59 39 67 0 3 -751 5 -1670 5 l-1670 0 1 -3087z"/>
<path d="M3350 9053 c0 -5 12 -28 27 -53 27 -46 79 -138 128 -225 15 -27 31
-54 35 -60 4 -5 42 -71 85 -145 43 -74 86 -148 95 -165 10 -16 60 -104 112
-195 52 -91 119 -205 148 -255 29 -49 70 -119 90 -155 20 -36 62 -109 93 -162
31 -54 57 -102 57 -108 0 -5 5 -10 10 -10 6 0 10 -4 10 -9 0 -8 32 -64 151
-268 28 -49 63 -108 76 -133 14 -25 29 -49 33 -55 4 -5 19 -30 32 -55 14 -25
69 -121 123 -215 54 -93 107 -186 118 -205 10 -19 51 -89 89 -155 75 -127 89
-153 243 -420 54 -93 111 -190 126 -215 15 -25 40 -70 57 -100 43 -80 65 -119
101 -174 17 -28 31 -54 31 -59 0 -4 13 -27 28 -50 16 -23 31 -47 35 -53 3 -6
-72 -88 -167 -183 l-173 -173 -40 69 c-22 37 -43 75 -46 83 -4 8 -25 44 -47
79 -22 35 -61 100 -86 145 -56 99 -103 182 -176 306 -135 233 -173 298 -201
350 -17 30 -49 87 -72 125 -23 39 -53 90 -67 115 -14 25 -63 110 -110 190 -46
80 -96 165 -109 190 -14 25 -50 88 -81 140 -30 52 -85 146 -122 209 -36 62
-66 115 -66 118 0 2 -16 29 -35 59 -19 30 -35 56 -35 59 0 3 -17 33 -38 67
-21 35 -52 88 -68 118 -16 30 -50 90 -76 133 -27 43 -48 80 -48 82 0 1 -18 33
-40 69 -22 36 -40 70 -40 76 0 5 -4 10 -10 10 -5 0 -10 5 -10 10 0 19 -174
310 -181 302 -4 -4 -18 -27 -32 -52 -13 -25 -48 -85 -77 -135 -29 -49 -66
-112 -82 -140 -16 -27 -37 -63 -47 -80 -20 -33 -50 -85 -82 -142 -31 -56 -175
-306 -229 -398 -26 -44 -58 -98 -70 -120 -12 -22 -59 -103 -103 -180 -91 -158
-129 -223 -172 -299 -16 -29 -59 -103 -95 -165 -36 -62 -82 -142 -103 -179
-62 -108 -147 -253 -180 -307 -16 -27 -42 -72 -57 -100 -15 -27 -37 -66 -48
-85 -12 -19 -44 -75 -72 -125 -85 -148 -125 -218 -153 -265 -15 -25 -40 -70
-57 -100 -36 -66 -48 -85 -77 -127 -13 -17 -23 -34 -23 -38 0 -3 -62 -113
-137 -243 -75 -130 -152 -264 -170 -297 -19 -33 -43 -76 -55 -95 -12 -19 -38
-64 -58 -100 -61 -108 -140 -244 -150 -260 -5 -8 -26 -44 -46 -80 -20 -36 -54
-93 -75 -127 -22 -34 -39 -65 -39 -68 0 -2 -26 -49 -58 -102 -151 -254 -203
-353 -231 -440 -92 -282 -94 -621 -4 -897 51 -160 141 -338 222 -438 55 -70
167 -191 203 -220 215 -176 376 -259 643 -329 114 -29 419 -38 561 -16 138 22
304 76 419 137 87 46 201 115 215 130 3 3 21 17 40 30 36 26 163 148 216 210
47 54 147 208 177 270 75 160 87 195 130 370 19 80 21 123 26 775 l6 690 223
3 222 2 0 -673 c0 -795 -2 -823 -84 -1092 -130 -428 -422 -811 -804 -1053
-187 -119 -420 -216 -612 -256 -204 -41 -300 -50 -500 -43 -244 8 -445 51
-670 144 -96 40 -218 102 -238 121 -7 6 -17 12 -22 12 -5 0 -15 6 -22 12 -7 7
-46 35 -85 61 -102 69 -144 103 -135 112 4 5 2 5 -4 2 -20 -11 -253 239 -339
364 -179 260 -297 575 -330 879 -11 97 -13 -92 -14 -1222 l-1 -1338 6400 0
6400 0 0 4530 0 4530 -4725 0 c-2599 0 -4725 -3 -4725 -7z m937 -3288 c44 -77
106 -185 138 -240 32 -55 110 -190 173 -300 63 -110 131 -227 150 -260 19 -33
46 -80 60 -105 14 -25 36 -63 50 -84 l24 -39 -173 -173 c-95 -95 -176 -171
-180 -168 -6 3 -44 66 -84 139 -6 11 -38 65 -70 120 -32 55 -75 130 -96 167
-21 37 -49 84 -61 105 -12 21 -34 61 -50 88 -58 100 -70 120 -79 130 -6 6
-324 -305 -869 -850 l-860 -860 0 -757 0 -758 -235 0 -235 0 0 857 0 858 1147
1147 c880 880 1150 1145 1159 1135 6 -6 47 -75 91 -152z m2238 -941 c111 -28
195 -95 246 -196 152 -300 -131 -631 -453 -527 -94 30 -181 109 -224 201 -25
55 -29 74 -29 158 1 84 4 102 29 154 48 98 119 164 216 198 88 32 131 34 215
12z m6103 -361 l3 -73 -2466 0 -2465 0 0 68 c0 38 3 72 7 75 3 4 1111 6 2462
4 l2456 -2 3 -72z m-6920 -929 l22 -4 0 -276 0 -275 -62 8 c-217 28 -381 -23
-498 -155 -77 -86 -116 -174 -140 -317 -19 -111 -20 -162 -20 -720 l1 -600
-290 -3 -289 -2 -5 1117 c-3 615 -8 1133 -12 1151 l-7 32 255 0 255 0 6 -72
c3 -40 8 -136 11 -213 3 -77 10 -144 14 -148 5 -5 15 12 24 37 77 225 318 422
545 444 67 7 148 5 190 -4z m5886 6 c166 -14 296 -50 441 -121 286 -141 470
-377 557 -718 24 -96 30 -144 35 -276 7 -191 -6 -315 -48 -465 -48 -175 -114
-303 -221 -429 -168 -198 -420 -336 -693 -378 -122 -18 -393 -12 -500 12 -359
81 -641 318 -776 654 -55 137 -80 267 -86 452 -9 281 36 496 148 704 89 165
251 329 414 419 137 76 331 132 500 145 55 5 102 9 105 9 3 1 59 -3 124 -8z
m-4364 -32 c343 -94 529 -293 607 -650 13 -61 17 -187 23 -758 6 -605 16 -842
35 -898 3 -9 -53 -12 -260 -12 -243 0 -264 1 -268 18 -6 18 -20 106 -22 132
-4 42 -19 100 -26 100 -4 0 -20 -16 -34 -35 -29 -37 -164 -145 -182 -145 -6 0
-13 -4 -15 -8 -7 -18 -177 -81 -257 -96 -104 -20 -276 -20 -375 -2 -130 25
-273 102 -356 193 -113 123 -176 267 -187 426 -25 389 192 677 617 820 164 55
453 97 673 97 l79 0 -7 68 c-20 200 -109 306 -295 353 -72 18 -103 21 -215 16
-195 -8 -334 -44 -502 -128 l-72 -36 -10 26 c-6 14 -22 64 -35 111 -14 47 -34
117 -45 155 -12 39 -19 75 -17 81 15 40 257 132 442 168 180 35 166 34 399 32
191 -2 219 -5 305 -28z m2360 -1 c112 -27 266 -82 276 -98 6 -10 -12 -80 -78
-311 -24 -84 -34 -105 -44 -97 -33 27 -192 82 -304 105 -145 30 -231 28 -327
-7 -97 -36 -163 -124 -163 -216 0 -76 64 -162 159 -213 53 -30 182 -83 281
-117 88 -30 278 -136 337 -187 122 -106 200 -228 222 -350 16 -84 13 -260 -4
-334 -45 -188 -187 -352 -386 -445 -155 -73 -339 -102 -587 -94 -232 7 -388
41 -569 123 -67 31 -74 36 -67 57 7 21 29 101 80 297 14 52 27 96 28 98 2 1
38 -14 82 -34 228 -106 478 -147 656 -109 97 20 162 66 200 139 31 60 23 167
-17 231 -49 78 -113 114 -415 233 -69 27 -168 75 -219 107 -95 59 -223 176
-251 231 -8 16 -18 31 -22 34 -4 3 -18 40 -32 82 -22 64 -26 95 -26 189 0 130
18 216 63 304 97 188 260 314 492 378 124 35 127 35 340 33 166 -2 203 -6 295
-29z"/>
<path d="M6367 4678 c-50 -13 -121 -82 -143 -136 -35 -90 -5 -204 69 -262 119
-93 297 -49 354 89 19 45 19 137 0 181 -43 102 -169 159 -280 128z"/>
<path d="M11342 3097 c-144 -34 -266 -137 -342 -290 -53 -106 -77 -202 -92
-359 -20 -208 9 -398 83 -553 35 -75 123 -205 138 -205 3 0 18 -11 32 -24 65
-60 199 -106 309 -106 164 0 310 83 412 233 53 78 83 149 116 271 24 91 26
119 27 276 0 114 -5 194 -13 230 -56 228 -129 356 -258 456 -104 81 -258 108
-412 71z"/>
<path d="M6946 2289 c-321 -57 -473 -208 -453 -448 7 -84 24 -127 73 -180 54
-60 110 -90 188 -99 169 -21 308 29 420 149 101 109 110 139 114 392 l3 207
-118 -1 c-67 -1 -165 -9 -227 -20z"/>
</g>
</svg>
