<svg xmlns="http://www.w3.org/2000/svg" version="1.1" xmlns:xlink="http://www.w3.org/1999/xlink" xmlns:svgjs="http://svgjs.dev/svgjs" width="1440" height="250" preserveAspectRatio="none" viewBox="0 0 1440 250"><g mask="url(&quot;#SvgjsMask1000&quot;)" fill="none"><rect width="1440" height="250" x="0" y="0" fill="#0e2a47"></rect><path d="M9 250L259 0L400 0L150 250z" fill="url(&quot;#SvgjsLinearGradient1001&quot;)"></path><path d="M275.6 250L525.6 0L662.1 0L412.1 250z" fill="url(&quot;#SvgjsLinearGradient1001&quot;)"></path><path d="M479.20000000000005 250L729.2 0L964.7 0L714.7 250z" fill="url(&quot;#SvgjsLinearGradient1001&quot;)"></path><path d="M735.8000000000001 250L985.8000000000001 0L1306.8000000000002 0L1056.8000000000002 250z" fill="url(&quot;#SvgjsLinearGradient1001&quot;)"></path><path d="M1415 250L1165 0L842.5 0L1092.5 250z" fill="url(&quot;#SvgjsLinearGradient1002&quot;)"></path><path d="M1184.4 250L934.4000000000001 0L775.4000000000001 0L1025.4 250z" fill="url(&quot;#SvgjsLinearGradient1002&quot;)"></path><path d="M949.8 250L699.8 0L360.79999999999995 0L610.8 250z" fill="url(&quot;#SvgjsLinearGradient1002&quot;)"></path><path d="M692.1999999999999 250L442.19999999999993 0L313.19999999999993 0L563.1999999999999 250z" fill="url(&quot;#SvgjsLinearGradient1002&quot;)"></path><path d="M1272.4156755075628 250L1440 82.41567550756292L1440 250z" fill="url(&quot;#SvgjsLinearGradient1001&quot;)"></path><path d="M0 250L167.58432449243708 250L 0 82.41567550756292z" fill="url(&quot;#SvgjsLinearGradient1002&quot;)"></path></g><defs><mask id="SvgjsMask1000"><rect width="1440" height="250" fill="#ffffff"></rect></mask><linearGradient x1="0%" y1="100%" x2="100%" y2="0%" id="SvgjsLinearGradient1001"><stop stop-color="rgba(15, 70, 185, 0.2)" offset="0"></stop><stop stop-opacity="0" stop-color="rgba(15, 70, 185, 0.2)" offset="0.66"></stop></linearGradient><linearGradient x1="100%" y1="100%" x2="0%" y2="0%" id="SvgjsLinearGradient1002"><stop stop-color="rgba(15, 70, 185, 0.2)" offset="0"></stop><stop stop-opacity="0" stop-color="rgba(15, 70, 185, 0.2)" offset="0.66"></stop></linearGradient></defs></svg>